# xmcd
#
# Track frame offsets: 
#        150
#        10425
#        20535
#        32987
#        46010
#        59512
#        75555
#        88892
#        104565
#        117525
#        131375
#        148750
#        161920
#        178157
#        190942
#        204557
#        220055
#
# Disc length: 3176 seconds
#
# Revision: 2
# Processed by: cddbd v1.5.1PL2 Copyright (c) Steve Scherf et al.
# Submitted via: ExactAudioCopy v0.95b4
#
DISCID=fb0c6611
DTITLE=Charly McClain - Anthology [CD2]
DYEAR=1999
DGENRE=Country
TTITLE0=Who's Cheatin' Who
TTITLE1=That's What You Do To Me
TTITLE2=Women Get Lonely
TTITLE3=When Love Ain't Right
TTITLE4=So This Is Love
TTITLE5=Sentimental Ol' You
TTITLE6=With You
TTITLE7=Dancing Your Memory Away
TTITLE8=Band Of Gold
TTITLE9=Candy Man (w/ Mickey Gilley)
TTITLE10=You Are My Music, You Are My Song (w/ Wayne Massey)
TTITLE11=Let Me Be Your Baby
TTITLE12=Some Hearts Get All The Breaks
TTITLE13=Lay Something On My Bed Besides A Blanket
TTITLE14=It's Too Late To Love Me Now
TTITLE15=And Then Some
TTITLE16=Still I Say
EXTD=
EXTT0=
EXTT1=
EXTT2=
EXTT3=
EXTT4=
EXTT5=
EXTT6=
EXTT7=
EXTT8=
EXTT9=
EXTT10=
EXTT11=
EXTT12=
EXTT13=
EXTT14=
EXTT15=
EXTT16=
PLAYORDER=
